<?xml version="1.0" standalone="no"?><!DOCTYPE svg PUBLIC "-//W3C//DTD SVG 1.1//EN" "http://www.w3.org/Graphics/SVG/1.1/DTD/svg11.dtd"><svg t="1713941614103" class="icon" viewBox="0 0 1024 1024" version="1.1" xmlns="http://www.w3.org/2000/svg" p-id="25477" xmlns:xlink="http://www.w3.org/1999/xlink" width="200" height="200"><path d="M80.428 192.428A57.466 57.466 0 0 1 120 176h784a57.439 57.439 0 0 1 39.567 16.428A57.466 57.466 0 0 1 960 232v560c0 30.922-25.077 56-56 56H120a57.475 57.475 0 0 1-39.572-16.433A57.443 57.443 0 0 1 64 792V232a57.47 57.47 0 0 1 16.428-39.572z m396.48 292.692L281.28 288 232 337.28l149.332 149.328L232 635.952l49.28 48.527L476.908 485.12zM787.52 624H512v69.439h275.52V624z" p-id="25478" fill="#2c2c2c"></path></svg>