<?xml version="1.0" standalone="no"?><!DOCTYPE svg PUBLIC "-//W3C//DTD SVG 1.1//EN" "http://www.w3.org/Graphics/SVG/1.1/DTD/svg11.dtd"><svg t="1713169351323" class="icon" viewBox="0 0 1024 1024" version="1.1" xmlns="http://www.w3.org/2000/svg" p-id="24511" xmlns:xlink="http://www.w3.org/1999/xlink" width="200" height="200"><path d="M179.2 119.466667C136.8576 119.466667 102.4 153.924267 102.4 196.266667S136.8576 273.066667 179.2 273.066667s76.8-34.4576 76.8-76.8S221.5424 119.466667 179.2 119.466667z m0 119.466666C155.682133 238.933333 136.533333 219.8016 136.533333 196.266667S155.682133 153.6 179.2 153.6s42.666667 19.131733 42.666667 42.666667-19.1488 42.666667-42.666667 42.666666z" fill="#ffffff" p-id="24512"></path><path d="M853.333333 170.666667m-17.066666 0a17.066667 17.066667 0 1 0 34.133333 0 17.066667 17.066667 0 1 0-34.133333 0Z" fill="#ffffff" p-id="24513"></path><path d="M785.066667 170.666667m-17.066667 0a17.066667 17.066667 0 1 0 34.133333 0 17.066667 17.066667 0 1 0-34.133333 0Z" fill="#ffffff" p-id="24514"></path><path d="M887.466667 221.866667m-17.066667 0a17.066667 17.066667 0 1 0 34.133333 0 17.066667 17.066667 0 1 0-34.133333 0Z" fill="#ffffff" p-id="24515"></path><path d="M819.2 221.866667m-17.066667 0a17.066667 17.066667 0 1 0 34.133334 0 17.066667 17.066667 0 1 0-34.133334 0Z" fill="#ffffff" p-id="24516"></path><path d="M716.8 170.666667m-17.066667 0a17.066667 17.066667 0 1 0 34.133334 0 17.066667 17.066667 0 1 0-34.133334 0Z" fill="#ffffff" p-id="24517"></path><path d="M750.933333 221.866667m-17.066666 0a17.066667 17.066667 0 1 0 34.133333 0 17.066667 17.066667 0 1 0-34.133333 0Z" fill="#ffffff" p-id="24518"></path><path d="M648.533333 170.666667m-17.066666 0a17.066667 17.066667 0 1 0 34.133333 0 17.066667 17.066667 0 1 0-34.133333 0Z" fill="#ffffff" p-id="24519"></path><path d="M682.666667 221.866667m-17.066667 0a17.066667 17.066667 0 1 0 34.133333 0 17.066667 17.066667 0 1 0-34.133333 0Z" fill="#ffffff" p-id="24520"></path><path d="M580.266667 170.666667m-17.066667 0a17.066667 17.066667 0 1 0 34.133333 0 17.066667 17.066667 0 1 0-34.133333 0Z" fill="#ffffff" p-id="24521"></path><path d="M614.4 221.866667m-17.066667 0a17.066667 17.066667 0 1 0 34.133334 0 17.066667 17.066667 0 1 0-34.133334 0Z" fill="#ffffff" p-id="24522"></path><path d="M1024 296.823467V95.709867A78.728533 78.728533 0 0 0 945.3568 17.066667H78.6432A78.728533 78.728533 0 0 0 0 95.709867v201.096533C0 321.877333 11.997867 343.995733 30.327467 358.4 11.997867 372.804267 0 394.922667 0 419.976533v201.096534A78.728533 78.728533 0 0 0 78.6432 699.733333H494.933333v138.257067A85.6064 85.6064 0 0 0 428.3904 904.533333H17.066667a17.066667 17.066667 0 1 0 0 34.133334h411.323733c7.936 38.894933 42.3936 68.266667 83.6096 68.266666s75.6736-29.371733 83.6096-68.266666H1006.933333a17.066667 17.066667 0 1 0 0-34.133334H595.6096A85.6064 85.6064 0 0 0 529.066667 837.9904V699.733333h416.290133A78.728533 78.728533 0 0 0 1024 621.090133V419.976533c0-25.070933-11.997867-47.172267-30.327467-61.576533C1012.002133 343.995733 1024 321.877333 1024 296.823467zM563.2 921.6c0 28.228267-22.971733 51.2-51.2 51.2s-51.2-22.971733-51.2-51.2 22.971733-51.2 51.2-51.2 51.2 22.971733 51.2 51.2z m426.666667-501.623467v201.096534A44.561067 44.561067 0 0 1 945.3568 665.6H78.6432A44.561067 44.561067 0 0 1 34.133333 621.090133V419.976533A44.561067 44.561067 0 0 1 78.6432 375.466667h866.696533A44.561067 44.561067 0 0 1 989.866667 419.976533zM78.6432 341.333333A44.561067 44.561067 0 0 1 34.133333 296.823467V95.709867A44.561067 44.561067 0 0 1 78.6432 51.2h866.696533A44.561067 44.561067 0 0 1 989.866667 95.709867v201.096533A44.561067 44.561067 0 0 1 945.3568 341.333333H78.6432z" fill="#ffffff" p-id="24523"></path><path d="M179.2 597.333333c42.3424 0 76.8-34.4576 76.8-76.8S221.5424 443.733333 179.2 443.733333 102.4 478.190933 102.4 520.533333 136.8576 597.333333 179.2 597.333333z m0-119.466666c23.517867 0 42.666667 19.131733 42.666667 42.666666S202.717867 563.2 179.2 563.2 136.533333 544.068267 136.533333 520.533333 155.682133 477.866667 179.2 477.866667z" fill="#ffffff" p-id="24524"></path><path d="M853.333333 494.933333m-17.066666 0a17.066667 17.066667 0 1 0 34.133333 0 17.066667 17.066667 0 1 0-34.133333 0Z" fill="#ffffff" p-id="24525"></path><path d="M785.066667 494.933333m-17.066667 0a17.066667 17.066667 0 1 0 34.133333 0 17.066667 17.066667 0 1 0-34.133333 0Z" fill="#ffffff" p-id="24526"></path><path d="M887.466667 546.133333m-17.066667 0a17.066667 17.066667 0 1 0 34.133333 0 17.066667 17.066667 0 1 0-34.133333 0Z" fill="#ffffff" p-id="24527"></path><path d="M819.2 546.133333m-17.066667 0a17.066667 17.066667 0 1 0 34.133334 0 17.066667 17.066667 0 1 0-34.133334 0Z" fill="#ffffff" p-id="24528"></path><path d="M716.8 494.933333m-17.066667 0a17.066667 17.066667 0 1 0 34.133334 0 17.066667 17.066667 0 1 0-34.133334 0Z" fill="#ffffff" p-id="24529"></path><path d="M750.933333 546.133333m-17.066666 0a17.066667 17.066667 0 1 0 34.133333 0 17.066667 17.066667 0 1 0-34.133333 0Z" fill="#ffffff" p-id="24530"></path><path d="M648.533333 494.933333m-17.066666 0a17.066667 17.066667 0 1 0 34.133333 0 17.066667 17.066667 0 1 0-34.133333 0Z" fill="#ffffff" p-id="24531"></path><path d="M682.666667 546.133333m-17.066667 0a17.066667 17.066667 0 1 0 34.133333 0 17.066667 17.066667 0 1 0-34.133333 0Z" fill="#ffffff" p-id="24532"></path><path d="M580.266667 494.933333m-17.066667 0a17.066667 17.066667 0 1 0 34.133333 0 17.066667 17.066667 0 1 0-34.133333 0Z" fill="#ffffff" p-id="24533"></path><path d="M614.4 546.133333m-17.066667 0a17.066667 17.066667 0 1 0 34.133334 0 17.066667 17.066667 0 1 0-34.133334 0Z" fill="#ffffff" p-id="24534"></path></svg>